<?xml version="1.0" encoding="UTF-8" standalone="no"?>
<!-- Created with Inkscape (http://www.inkscape.org/) -->

<svg
   width="120.77286mm"
   height="119.66216mm"
   viewBox="0 0 120.77286 119.66216"
   version="1.1"
   id="svg1"
   xml:space="preserve"
   xmlns="http://www.w3.org/2000/svg"
   xmlns:svg="http://www.w3.org/2000/svg"><defs
     id="defs1"><marker
       style="overflow:visible"
       id="marker6"
       refX="0"
       refY="0"
       orient="auto-start-reverse"
       markerWidth="1"
       markerHeight="1"
       viewBox="0 0 1 1"
       preserveAspectRatio="xMidYMid"><path
         style="fill:context-stroke;fill-rule:evenodd;stroke:none"
         d="m 1,0 -3,3 h -2 l 3,-3 -3,-3 h 2 z"
         id="path6" /></marker><marker
       style="overflow:visible"
       id="ArrowWideHeavy"
       refX="0"
       refY="0"
       orient="auto-start-reverse"
       markerWidth="1"
       markerHeight="1"
       viewBox="0 0 1 1"
       preserveAspectRatio="xMidYMid"><path
         style="fill:context-stroke;fill-rule:evenodd;stroke:none"
         d="m 1,0 -3,3 h -2 l 3,-3 -3,-3 h 2 z"
         id="path5" /></marker><marker
       style="overflow:visible"
       id="ArrowWideHeavy-9"
       refX="0"
       refY="0"
       orient="auto-start-reverse"
       markerWidth="1"
       markerHeight="1"
       viewBox="0 0 1 1"
       preserveAspectRatio="xMidYMid"><path
         style="fill:context-stroke;fill-rule:evenodd;stroke:none"
         d="m 1,0 -3,3 h -2 l 3,-3 -3,-3 h 2 z"
         id="path5-3" /></marker><marker
       style="overflow:visible"
       id="marker6-1"
       refX="0"
       refY="0"
       orient="auto-start-reverse"
       markerWidth="1"
       markerHeight="1"
       viewBox="0 0 1 1"
       preserveAspectRatio="xMidYMid"><path
         style="fill:context-stroke;fill-rule:evenodd;stroke:none"
         d="m 1,0 -3,3 h -2 l 3,-3 -3,-3 h 2 z"
         id="path6-9" /></marker><marker
       style="overflow:visible"
       id="ArrowWideHeavy-9-0"
       refX="0"
       refY="0"
       orient="auto-start-reverse"
       markerWidth="1"
       markerHeight="1"
       viewBox="0 0 1 1"
       preserveAspectRatio="xMidYMid"><path
         style="fill:context-stroke;fill-rule:evenodd;stroke:none"
         d="m 1,0 -3,3 h -2 l 3,-3 -3,-3 h 2 z"
         id="path5-3-3" /></marker><marker
       style="overflow:visible"
       id="marker6-1-6"
       refX="0"
       refY="0"
       orient="auto-start-reverse"
       markerWidth="1"
       markerHeight="1"
       viewBox="0 0 1 1"
       preserveAspectRatio="xMidYMid"><path
         style="fill:context-stroke;fill-rule:evenodd;stroke:none"
         d="m 1,0 -3,3 h -2 l 3,-3 -3,-3 h 2 z"
         id="path6-9-1" /></marker></defs><g
     id="layer1"
     transform="translate(-57.414583,-74.501974)"><rect
       style="fill:none;stroke:#000000;stroke-width:0.4;stroke-linecap:round;stroke-linejoin:round;stroke-dasharray:none;stroke-opacity:1;paint-order:stroke fill markers"
       id="rect1"
       width="83.700005"
       height="17.152948"
       x="57.811764"
       y="166.92352"
       ry="2.7"
       rx="2.7" /><text
       xml:space="preserve"
       style="font-size:7.76111px;line-height:1;font-family:'Source Code Pro';-inkscape-font-specification:'Source Code Pro';font-variant-caps:all-small-caps;text-align:center;letter-spacing:-0.396875px;word-spacing:0.661458px;text-anchor:middle;fill:#000000;fill-opacity:1;stroke:none;stroke-width:0.4;stroke-linecap:round;stroke-linejoin:round;stroke-dasharray:none;stroke-opacity:1;paint-order:stroke fill markers"
       x="99.608849"
       y="176.99013"
       id="text1"><tspan
         id="tspan1"
         style="font-size:7.76111px;fill:#000000;fill-opacity:1;stroke:none;stroke-width:0.4"
         x="99.410408"
         y="176.99013">Device</tspan></text><g
       style="fill:none"
       id="g1"
       transform="matrix(0.71353191,0,0,0.71353191,81.489402,178.45332)"><path
         d="M 17,10 V 4.6 C 17,4.03995 17,3.75992 16.891,3.54601 16.7951,3.35785 16.6422,3.20487 16.454,3.10899 16.2401,3 15.9601,3 15.4,3 H 8.6 C 8.03995,3 7.75992,3 7.54601,3.10899 7.35785,3.20487 7.20487,3.35785 7.10899,3.54601 7,3.75992 7,4.03995 7,4.6 V 10 M 10.5,7 V 6 m 3,1 V 6 m -2.1,15 h 1.2 c 2.2402,0 3.3603,0 4.216,-0.436 0.7526,-0.3835 1.3645,-0.9954 1.748,-1.748 C 19,17.9603 19,16.8402 19,14.6 v -3 C 19,11.0399 19,10.7599 18.891,10.546 18.7951,10.3578 18.6422,10.2049 18.454,10.109 18.2401,10 17.9601,10 17.4,10 H 6.6 C 6.03995,10 5.75992,10 5.54601,10.109 5.35785,10.2049 5.20487,10.3578 5.10899,10.546 5,10.7599 5,11.0399 5,11.6 v 3 c 0,2.2402 0,3.3603 0.43597,4.216 0.3835,0.7526 0.99542,1.3645 1.74807,1.748 C 8.03968,21 9.15979,21 11.4,21 Z"
         stroke="#000000"
         stroke-width="2"
         stroke-linecap="round"
         stroke-linejoin="round"
         id="path1" /></g><g
       style="fill:none"
       id="g2"
       transform="matrix(0.70780015,0,0,0.70780015,65.301709,178.58977)"><path
         d="M 7,18 H 6.2 C 5.0799,18 4.51984,18 4.09202,17.782 3.71569,17.5903 3.40973,17.2843 3.21799,16.908 3,16.4802 3,15.9201 3,14.8 V 10.2 C 3,9.0799 3,8.51984 3.21799,8.09202 3.40973,7.71569 3.71569,7.40973 4.09202,7.21799 4.51984,7 5.0799,7 6.2,7 H 7 m 10,11 h 0.8 c 1.1201,0 1.6802,0 2.108,-0.218 0.3763,-0.1917 0.6823,-0.4977 0.874,-0.874 C 21,16.4802 21,15.9201 21,14.8 V 10.2 C 21,9.07989 21,8.51984 20.782,8.09202 20.5903,7.71569 20.2843,7.40973 19.908,7.21799 19.4802,7 18.9201,7 17.8,7 H 17 M 7,11 H 7.01 M 17,7 V 5.4 4.6 C 17,4.03995 17,3.75992 16.891,3.54601 16.7951,3.35785 16.6422,3.20487 16.454,3.10899 16.2401,3 15.9601,3 15.4,3 H 8.6 C 8.03995,3 7.75992,3 7.54601,3.10899 7.35785,3.20487 7.20487,3.35785 7.10899,3.54601 7,3.75992 7,4.03995 7,4.6 V 5.4 7 M 17,7 H 7 m 1.6,14 h 6.8 c 0.5601,0 0.8401,0 1.054,-0.109 0.1882,-0.0959 0.3411,-0.2488 0.437,-0.437 C 17,20.2401 17,19.9601 17,19.4 V 16.6 C 17,16.0399 17,15.7599 16.891,15.546 16.7951,15.3578 16.6422,15.2049 16.454,15.109 16.2401,15 15.9601,15 15.4,15 H 8.6 C 8.03995,15 7.75992,15 7.54601,15.109 7.35785,15.2049 7.20487,15.3578 7.10899,15.546 7,15.7599 7,16.0399 7,16.6 v 2.8 c 0,0.5601 0,0.8401 0.10899,1.054 0.09588,0.1882 0.24886,0.3411 0.43702,0.437 C 7.75992,21 8.03995,21 8.6,21 Z"
         stroke="#000000"
         stroke-width="2"
         stroke-linecap="round"
         stroke-linejoin="round"
         id="path1-6" /></g><g
       style="fill:none;fill-opacity:1;stroke:#000000;stroke-opacity:1"
       id="g3"
       transform="matrix(0.65700728,0,0,0.65700728,96.050062,179.13062)"><path
         d="m 19,15 c 0,3.866 -3.134,7 -7,7 C 8.13401,22 5,18.866 5,15 V 9 c 0,-3.86599 3.13401,-7 7,-7 3.866,0 7,3.13401 7,7 v 2"
         stroke="#1c274c"
         stroke-width="1.5"
         stroke-linecap="round"
         id="path1-2"
         style="fill:none;fill-opacity:1;stroke:#000000;stroke-opacity:1" /><path
         d="M 10.5,8.5 C 10.5,7.67157 11.1716,7 12,7 c 0.8284,0 1.5,0.67157 1.5,1.5 v 2 c 0,0.8284 -0.6716,1.5 -1.5,1.5 -0.8284,0 -1.5,-0.6716 -1.5,-1.5 z"
         stroke="#1c274c"
         stroke-width="1.5"
         id="path2"
         style="fill:none;fill-opacity:1;stroke:#000000;stroke-opacity:1" /><path
         d="M 12,2 V 7"
         stroke="#1c274c"
         stroke-width="1.5"
         stroke-linecap="round"
         id="path3"
         style="fill:none;fill-opacity:1;stroke:#000000;stroke-opacity:1" /></g><g
       style="fill:none"
       id="g4"
       transform="matrix(0.76803147,0,0,0.76803147,111.33924,176.95788)"><path
         d="M 6,13 H 6.01 M 6,17 H 6.01 M 10,13 h 0.01 M 14,13 h 0.01 M 18,17 h 0.01 M 18,13 h 0.01 M 16,3 V 5 H 8 v 4 m 2,8 h 4 m -8.8,4 h 13.6 c 1.1201,0 1.6802,0 2.108,-0.218 0.3763,-0.1917 0.6823,-0.4977 0.874,-0.874 C 22,19.4802 22,18.9201 22,17.8 V 12.2 C 22,11.0799 22,10.5198 21.782,10.092 21.5903,9.71569 21.2843,9.40973 20.908,9.21799 20.4802,9 19.9201,9 18.8,9 H 5.2 C 4.07989,9 3.51984,9 3.09202,9.21799 2.71569,9.40973 2.40973,9.71569 2.21799,10.092 2,10.5198 2,11.0799 2,12.2 v 5.6 c 0,1.1201 0,1.6802 0.21799,2.108 0.19174,0.3763 0.4977,0.6823 0.87403,0.874 C 3.51984,21 4.0799,21 5.2,21 Z"
         stroke="#000000"
         stroke-width="2"
         stroke-linecap="round"
         stroke-linejoin="round"
         id="path1-7" /></g><rect
       style="fill:none;stroke:#000000;stroke-width:0.4;stroke-linecap:round;stroke-linejoin:round;stroke-dasharray:none;stroke-opacity:1;paint-order:stroke fill markers"
       id="rect1-0"
       width="83.700005"
       height="17.152948"
       x="57.855858"
       y="137.20111"
       ry="2.7"
       rx="2.7" /><text
       xml:space="preserve"
       style="font-size:7.76111px;line-height:1;font-family:'Source Code Pro';-inkscape-font-specification:'Source Code Pro';font-variant-caps:all-small-caps;text-align:center;letter-spacing:-0.396875px;word-spacing:0.661458px;text-anchor:middle;fill:#000000;fill-opacity:1;stroke:none;stroke-width:0.4;stroke-linecap:round;stroke-linejoin:round;stroke-dasharray:none;stroke-opacity:1;paint-order:stroke fill markers"
       x="99.652939"
       y="147.26772"
       id="text1-6"><tspan
         id="tspan1-2"
         style="font-size:7.76111px;fill:#000000;fill-opacity:1;stroke:none;stroke-width:0.4"
         x="99.454498"
         y="147.26772">Driver</tspan></text><rect
       style="fill:none;stroke:#000000;stroke-width:0.4;stroke-linecap:round;stroke-linejoin:round;stroke-dasharray:none;stroke-opacity:1;paint-order:stroke fill markers"
       id="rect1-0-9"
       width="83.700005"
       height="17.152948"
       x="57.855858"
       y="107.11178"
       ry="2.7"
       rx="2.7" /><text
       xml:space="preserve"
       style="font-size:7.76111px;line-height:1;font-family:'Source Code Pro';-inkscape-font-specification:'Source Code Pro';font-variant-caps:all-small-caps;text-align:center;letter-spacing:-0.396875px;word-spacing:0.661458px;text-anchor:middle;fill:#000000;fill-opacity:1;stroke:none;stroke-width:0.4;stroke-linecap:round;stroke-linejoin:round;stroke-dasharray:none;stroke-opacity:1;paint-order:stroke fill markers"
       x="99.652939"
       y="117.17838"
       id="text1-6-73"><tspan
         id="tspan1-2-6"
         style="font-size:7.76111px;fill:#000000;fill-opacity:1;stroke:none;stroke-width:0.4"
         x="99.454498"
         y="117.17838">/dev/***</tspan></text><text
       xml:space="preserve"
       style="font-size:7.76111px;line-height:1;font-family:'Source Code Pro';-inkscape-font-specification:'Source Code Pro';font-variant-caps:all-small-caps;text-align:center;letter-spacing:-0.396875px;word-spacing:0.661458px;text-anchor:middle;fill:#000000;fill-opacity:1;stroke:none;stroke-width:0.4;stroke-linecap:round;stroke-linejoin:round;stroke-dasharray:none;stroke-opacity:1;paint-order:stroke fill markers"
       x="165.50014"
       y="143.88103"
       id="text1-6-7"><tspan
         id="tspan1-2-5"
         style="font-size:7.76111px;fill:#000000;fill-opacity:1;stroke:none;stroke-width:0.4"
         x="165.50014"
         y="143.88103">Kernel</tspan><tspan
         style="font-size:7.76111px;fill:#000000;fill-opacity:1;stroke:none;stroke-width:0.4"
         x="165.3017"
         y="151.64214"
         id="tspan8">Space</tspan></text><path
       style="fill:none;fill-opacity:1;stroke:#000000;stroke-width:0.4;stroke-linecap:round;stroke-linejoin:round;stroke-dasharray:none;stroke-opacity:1;marker-start:url(#ArrowWideHeavy);marker-end:url(#marker6);paint-order:stroke fill markers"
       d="m 99.70586,154.88321 -0.0441,11.51114"
       id="path4" /><path
       style="fill:none;fill-opacity:1;stroke:#000000;stroke-width:0.4;stroke-linecap:round;stroke-linejoin:round;stroke-dasharray:none;stroke-opacity:1;marker-start:url(#ArrowWideHeavy-9);marker-end:url(#marker6-1);paint-order:stroke fill markers"
       d="m 99.768121,124.89902 -0.0441,11.51114"
       id="path4-8" /><rect
       style="fill:none;stroke:#000000;stroke-width:0.4;stroke-linecap:round;stroke-linejoin:round;stroke-dasharray:none;stroke-opacity:1;paint-order:stroke fill markers"
       id="rect1-0-9-3"
       width="83.700005"
       height="17.152948"
       x="57.614582"
       y="76.664604"
       ry="2.7"
       rx="2.7" /><text
       xml:space="preserve"
       style="font-size:7.76111px;line-height:1;font-family:'Source Code Pro';-inkscape-font-specification:'Source Code Pro';font-variant-caps:all-small-caps;text-align:center;letter-spacing:-0.396875px;word-spacing:0.661458px;text-anchor:middle;fill:#000000;fill-opacity:1;stroke:none;stroke-width:0.4;stroke-linecap:round;stroke-linejoin:round;stroke-dasharray:none;stroke-opacity:1;paint-order:stroke fill markers"
       x="99.411659"
       y="86.731194"
       id="text1-6-73-2"><tspan
         id="tspan1-2-6-0"
         style="font-size:7.76111px;fill:#000000;fill-opacity:1;stroke:none;stroke-width:0.4"
         x="99.213219"
         y="86.731194">User applications</tspan></text><path
       style="fill:none;fill-opacity:1;stroke:#000000;stroke-width:0.4;stroke-linecap:round;stroke-linejoin:round;stroke-dasharray:none;stroke-opacity:1;marker-start:url(#ArrowWideHeavy-9-0);marker-end:url(#marker6-1-6);paint-order:stroke fill markers"
       d="m 99.526843,94.451603 -0.0441,11.511107"
       id="path4-8-6" /><path
       style="fill:none;fill-opacity:1;stroke:#000000;stroke-width:0.4;stroke-linecap:round;stroke-linejoin:round;stroke-dasharray:none;stroke-opacity:1;paint-order:stroke fill markers"
       d="m 142.99532,135.79412 c 4.64746,-0.46494 1.67715,7.92199 6.35295,9.8"
       id="path7" /><path
       style="fill:none;fill-opacity:1;stroke:#000000;stroke-width:0.4;stroke-linecap:round;stroke-linejoin:round;stroke-dasharray:none;stroke-opacity:1;paint-order:stroke fill markers"
       d="m 142.99532,155.39962 c 4.64746,0.46494 1.67715,-7.92199 6.35295,-9.8"
       id="path7-9" /><text
       xml:space="preserve"
       style="font-size:7.76111px;line-height:1;font-family:'Source Code Pro';-inkscape-font-specification:'Source Code Pro';font-variant-caps:all-small-caps;text-align:center;letter-spacing:-0.396875px;word-spacing:0.661458px;text-anchor:middle;fill:#000000;fill-opacity:1;stroke:none;stroke-width:0.4;stroke-linecap:round;stroke-linejoin:round;stroke-dasharray:none;stroke-opacity:1;paint-order:stroke fill markers"
       x="165.81499"
       y="97.816528"
       id="text1-6-7-2"><tspan
         id="tspan1-2-5-5"
         style="font-size:7.76111px;fill:#000000;fill-opacity:1;stroke:none;stroke-width:0.4"
         x="165.81499"
         y="97.816528">User</tspan><tspan
         style="font-size:7.76111px;fill:#000000;fill-opacity:1;stroke:none;stroke-width:0.4"
         x="165.61655"
         y="105.57764"
         id="tspan8-4">Space</tspan></text><g
       id="g8"
       transform="matrix(1.4499215,0,0,2.590209,-64.336417,-199.80197)"
       style="stroke-width:0.516013"><path
         style="fill:none;fill-opacity:1;stroke:#000000;stroke-width:0.206405;stroke-linecap:round;stroke-linejoin:round;stroke-dasharray:none;stroke-opacity:1;paint-order:stroke fill markers"
         d="m 142.99531,106.02154 c 4.64746,-0.46494 1.67715,7.92199 6.35295,9.8"
         id="path7-7" /><path
         style="fill:none;fill-opacity:1;stroke:#000000;stroke-width:0.206405;stroke-linecap:round;stroke-linejoin:round;stroke-dasharray:none;stroke-opacity:1;paint-order:stroke fill markers"
         d="m 142.99531,125.62704 c 4.64746,0.46494 1.67715,-7.92199 6.35295,-9.8"
         id="path7-9-4" /></g></g></svg>
