<?xml version="1.0" encoding="UTF-8" standalone="no"?>
<svg
   id="Layer_1"
   data-name="Layer 1"
   viewBox="0 0 1404.5837 692.61761"
   version="1.1"
   sodipodi:docname="routing.svg"
   width="1404.5837"
   height="692.61761"
   inkscape:version="1.3.2 (091e20ef0f, 2023-11-25, custom)"
   xmlns:inkscape="http://www.inkscape.org/namespaces/inkscape"
   xmlns:sodipodi="http://sodipodi.sourceforge.net/DTD/sodipodi-0.dtd"
   xmlns="http://www.w3.org/2000/svg"
   xmlns:svg="http://www.w3.org/2000/svg">
  <sodipodi:namedview
     id="namedview86"
     pagecolor="#ffffff"
     bordercolor="#000000"
     borderopacity="0.25"
     inkscape:showpageshadow="2"
     inkscape:pageopacity="0.0"
     inkscape:pagecheckerboard="0"
     inkscape:deskcolor="#d1d1d1"
     inkscape:zoom="1.1337838"
     inkscape:cx="703.8379"
     inkscape:cy="358.09297"
     inkscape:window-width="2560"
     inkscape:window-height="1368"
     inkscape:window-x="1600"
     inkscape:window-y="0"
     inkscape:window-maximized="1"
     inkscape:current-layer="Layer_1" />
  <defs
     id="defs1">
    <style
       id="style1">.cls-1{fill:#404242;}.cls-2{fill:#4698cf;}.cls-3{opacity:0.8;}.cls-4{opacity:0.4;}.cls-5{opacity:0.2;}.cls-6{opacity:0.1;}</style>
  </defs>
  <path
     class="cls-1"
     d="m 312.76,278.58 a 14.84,14.84 0 1 0 -23.43,12.1 1.42,1.42 0 1 1 -1.64,2.31 17.67,17.67 0 1 1 19.68,0.52 1.42,1.42 0 0 1 -1.52,-2.39 14.77,14.77 0 0 0 6.91,-12.54 z m -29.67,22.43 a 1.4144964,1.4144964 0 0 0 1.56,-2.36 24.06,24.06 0 1 1 26.81,-0.19 1.4214869,1.4214869 0 0 0 1.6,2.35 26.9,26.9 0 1 0 -30,0.2 z m 143.17,17.14 v 51.23 a 6.38,6.38 0 0 1 -6.37,6.38 h -153.6 a 6.39,6.39 0 0 1 -6.38,-6.38 v -51.23 a 6.4,6.4 0 0 1 6.38,-6.38 h 28.15 v -24 a 3.55,3.55 0 0 1 7.09,0 v 24 h 118.36 a 6.39,6.39 0 0 1 6.37,6.38 z m -7.08,0.71 H 267 v 49.79 h 152.18 z m -41.15,30.7 a 5.15,5.15 0 1 0 -5.15,-5.15 5.14,5.14 0 0 0 5.15,5.15 z m 16.49,0 a 5.15,5.15 0 1 0 -5.15,-5.18 5.15,5.15 0 0 0 5.15,5.18 z m -49.46,0 a 5.15,5.15 0 1 0 -5.15,-5.15 5.15,5.15 0 0 0 5.15,5.15 z m 16.49,0 a 5.15,5.15 0 1 0 -5.15,-5.15 5.14,5.14 0 0 0 5.15,5.15 z m 37,32.18 H 287.67 a 3.54,3.54 0 1 0 0,7.08 h 110.88 a 3.54,3.54 0 1 0 0,-7.08 z"
     id="path1" />
  <path
     class="cls-2"
     d="m 149.35,386.38 v -84.34 a 6.67,6.67 0 0 0 -6.68,-6.66 H 15.55 a 6.67,6.67 0 0 0 -6.66,6.66 v 84.34 H 0 c 0.79,6 5,10.66 10,10.66 h 137.57 c 5,0 9.19,-4.63 10,-10.66 z M 16.51,302.99 h 125.23 v 83.39 H 16.51 Z"
     id="path2" />
  <path
     class="cls-2"
     d="m 1390.67,380.92 v -84.36 a 6.67,6.67 0 0 0 -6.66,-6.66 h -127.15 a 6.67,6.67 0 0 0 -6.66,6.66 v 84.36 h -8.89 c 0.79,6 5,10.66 10,10.66 h 137.59 c 5,0 9.19,-4.64 10,-10.66 z m -132.85,-83.41 h 125.24 v 83.41 h -125.25 z"
     id="path3" />
  <path
     class="cls-1"
     d="m 567.96,149.85 a 9.18,9.18 0 1 1 -9.17,-9.17 9.17,9.17 0 0 1 9.17,9.17 z m -9.17,-49.55 a 9.18,9.18 0 1 0 -9.18,-9.18 9.17,9.17 0 0 0 9.18,9.18 z m 106.15,40.38 a 9.18,9.18 0 1 0 9.18,9.17 9.17,9.17 0 0 0 -9.18,-9.17 z m 0,-40.38 a 9.18,9.18 0 1 0 -9.18,-9.18 9.18,9.18 0 0 0 9.18,9.18 z m -43.75,18.66 a 9.18,9.18 0 1 0 -9.17,9.17 9.18,9.18 0 0 0 9.17,-9.17 z m -9.17,-47.73 a 9.18,9.18 0 1 0 -9.18,-9.17 9.17,9.17 0 0 0 9.18,9.17 z m 2.65,36.33 V 73.45 a 11.64,11.64 0 0 1 -2.65,0.31 c -0.35,0 -0.69,0 -1,0 v 33.59 c 0.33,0 0.67,0 1,0 a 11.64,11.64 0 0 1 2.65,0.21 z m -44.83,38.47 15.42,-8.56 19.52,32.25 a 11.87,11.87 0 0 1 3.21,-1.79 l -19.52,-32.24 15.25,-8.47 a 11.72,11.72 0 0 1 -2.15,-3 l -15,8.33 -7.6,-12.55 7.27,-12.08 14.48,8 a 11.59,11.59 0 0 1 1.49,-3.37 l -14.08,-7.81 19.23,-32 a 11.48,11.48 0 0 1 -3.09,-2 l -19.35,32.16 -15,-8.31 a 11.78,11.78 0 0 1 -1.66,3.28 l 14.74,8.18 -6.21,10.32 -10.12,-16.65 a 11.77,11.77 0 0 1 -3.06,2 l 11,18.24 -11.44,19 a 11.63,11.63 0 0 1 3.13,1.91 l 10.46,-17.39 6.6,10.9 -15.25,8.46 a 11.6,11.6 0 0 1 1.73,3.19 z m 84.11,-50.9 -14.74,8.19 -19.6,-32.37 a 11.36,11.36 0 0 1 -3.12,1.92 l 19.5,32.23 -14,7.77 a 11.59,11.59 0 0 1 1.41,3.42 l 14.49,-8 7.3,12.07 -7.26,12.02 -15.32,-8.5 a 11.38,11.38 0 0 1 -2.06,3 l 15.49,8.6 -19.57,32.61 a 11.79,11.79 0 0 1 3.13,1.91 l 19.65,-32.62 14.81,8.23 a 11.45,11.45 0 0 1 1.86,-3.17 l -14.78,-8.2 6.21,-10.33 10.23,16.9 a 11.41,11.41 0 0 1 3.18,-1.83 l -11.27,-18.62 11,-18.35 a 11.79,11.79 0 0 1 -3.13,-1.91 l -10.05,16.71 -6.23,-10.3 14.66,-8.13 a 11.6,11.6 0 0 1 -1.79,-3.25 z m 1.78,-11.23 -32.7,-17.92 a 11.32,11.32 0 0 1 -1.76,3.22 l 32.68,17.91 a 11.84,11.84 0 0 1 1.78,-3.21 z M 611,130.61 v 36.65 c 0.33,0 0.67,0 1,0 a 11.64,11.64 0 0 1 2.65,0.31 v -37.19 a 11.64,11.64 0 0 1 -2.65,0.31 c -0.33,-0.03 -0.67,-0.05 -1,-0.08 z m -8.19,-61.33 a 11.84,11.84 0 0 1 -1.78,-3.21 l -32.89,18 a 11.77,11.77 0 0 1 1.72,3.25 z m 18.34,102.32 a 11.81,11.81 0 0 1 1.81,3.19 l 32.65,-17.89 a 11.35,11.35 0 0 1 -1.73,-3.24 z m 41.55,-69 v 35.78 a 11.73,11.73 0 0 1 2.24,-0.22 11.32,11.32 0 0 1 1.43,0.09 v -35.52 a 11.32,11.32 0 0 1 -1.43,0.09 11,11 0 0 1 -2.27,-0.22 z m -104.93,0.17 v 35.43 c 0.33,0 0.67,0 1,0 a 11.58,11.58 0 0 1 2.65,0.31 v -36 a 11.58,11.58 0 0 1 -2.65,0.31 c -0.33,0 -0.67,-0.02 -1,-0.05 z m 12.17,50.61 a 11.72,11.72 0 0 1 -1.66,3.27 l 32.83,18 a 11.56,11.56 0 0 1 1.85,-3.17 z m 42.08,16.33 a 9.18,9.18 0 1 0 9.17,9.17 9.18,9.18 0 0 0 -9.17,-9.14 z"
     id="path4" />
  <path
     class="cls-1"
     d="m 580.01,604.61 a 9.18,9.18 0 1 1 -9.18,-9.18 9.18,9.18 0 0 1 9.18,9.18 z m -9.18,-49.56 a 9.18,9.18 0 1 0 -9.16,-9.17 9.17,9.17 0 0 0 9.16,9.17 z m 106.15,40.38 a 9.18,9.18 0 1 0 9.18,9.18 9.18,9.18 0 0 0 -9.18,-9.18 z m 0,-40.38 a 9.18,9.18 0 1 0 -9.17,-9.17 9.17,9.17 0 0 0 9.17,9.17 z m -43.74,18.66 a 9.18,9.18 0 1 0 -9.18,9.18 9.18,9.18 0 0 0 9.18,-9.18 z m -9.18,-47.72 a 9.18,9.18 0 1 0 -9.18,-9.17 9.18,9.18 0 0 0 9.18,9.17 z m 2.61,36.33 v -34.11 a 11.58,11.58 0 0 1 -2.65,0.31 c -0.34,0 -0.68,0 -1,0 v 33.59 c 0.34,0 0.68,0 1,0 a 11.58,11.58 0 0 1 2.65,0.21 z m -44.82,38.47 15.41,-8.56 19.53,32.25 a 12,12 0 0 1 3.2,-1.79 l -19.52,-32.25 15.26,-8.46 a 11.75,11.75 0 0 1 -2.16,-3 l -15,8.33 -7.59,-12.55 7.27,-12.09 14.47,8 a 11.5,11.5 0 0 1 1.5,-3.37 l -14.08,-7.81 19.22,-32 a 11.8,11.8 0 0 1 -3.09,-2 l -19.3,32.24 -15,-8.31 a 11.52,11.52 0 0 1 -1.66,3.28 l 14.74,8.18 -6.2,10.32 -10.1,-16.72 a 11.77,11.77 0 0 1 -3.06,2 l 11,18.24 -11.45,19 a 11.84,11.84 0 0 1 3.14,1.91 l 10.46,-17.39 6.52,10.77 -15.25,8.47 a 11.63,11.63 0 0 1 1.78,3.31 z m 84.11,-50.9 -14.75,8.19 -19.54,-32.37 a 11.66,11.66 0 0 1 -3.13,1.92 l 19.51,32.23 -14,7.77 a 11.57,11.57 0 0 1 1.4,3.42 l 14.49,-8 7.31,12.07 -7.28,12.09 -15.3,-8.55 a 11.65,11.65 0 0 1 -2.07,3.05 l 15.49,8.6 -19.57,32.54 a 11.63,11.63 0 0 1 3.13,1.91 l 19.65,-32.67 14.81,8.23 a 11.7,11.7 0 0 1 1.86,-3.17 l -14.77,-8.2 6.21,-10.33 10.26,16.9 a 11.56,11.56 0 0 1 3.18,-1.83 l -11.27,-18.62 11,-18.35 a 11.69,11.69 0 0 1 -3.14,-1.91 l -10,16.71 -6.24,-10.3 14.63,-8.12 A 11.57,11.57 0 0 1 666,549.89 Z m 1.78,-11.23 -32.7,-17.92 a 11.57,11.57 0 0 1 -1.76,3.22 l 32.68,17.91 a 11.57,11.57 0 0 1 1.82,-3.21 z m -44.7,46.72 v 36.65 c 0.34,0 0.68,0 1,0 a 11.58,11.58 0 0 1 2.65,0.31 v -37.23 a 11.58,11.58 0 0 1 -2.65,0.31 c -0.32,-0.04 -0.66,-0.04 -1,-0.04 z m -8.18,-61.33 a 11.57,11.57 0 0 1 -1.78,-3.21 l -32.9,18 a 11.51,11.51 0 0 1 1.72,3.25 z m 18.33,102.33 a 11.44,11.44 0 0 1 1.82,3.19 l 32.66,-17.91 a 12,12 0 0 1 -1.73,-3.24 z m 41.55,-69 v 35.76 a 11.9,11.9 0 0 1 2.24,-0.22 11.19,11.19 0 0 1 1.43,0.1 v -35.53 a 13.39,13.39 0 0 1 -1.43,0.09 11.9,11.9 0 0 1 -2.24,-0.2 z m -104.93,0.17 v 35.43 c 0.34,0 0.68,-0.06 1,-0.06 a 11.51,11.51 0 0 1 2.65,0.32 v -36 a 11.51,11.51 0 0 1 -2.65,0.31 c -0.32,0.03 -0.66,0.01 -1,-0.02 z m 12.18,50.64 a 11.86,11.86 0 0 1 -1.66,3.27 l 32.83,18 a 11.79,11.79 0 0 1 1.84,-3.17 z m 42.07,16.33 a 9.18,9.18 0 1 0 9.18,9.17 9.17,9.17 0 0 0 -9.18,-9.19 z"
     id="path5" />
  <path
     class="cls-1"
     d="m 1042.81,604.61 a 9.18,9.18 0 1 1 -9.17,-9.18 9.17,9.17 0 0 1 9.17,9.18 z m -9.14,-49.56 a 9.18,9.18 0 1 0 -9.18,-9.17 9.16,9.16 0 0 0 9.18,9.17 z m 106.15,40.38 a 9.18,9.18 0 1 0 9.17,9.18 9.18,9.18 0 0 0 -9.2,-9.18 z m 0,-40.38 a 9.18,9.18 0 1 0 -9.18,-9.17 9.16,9.16 0 0 0 9.15,9.17 z m -43.75,18.66 a 9.18,9.18 0 1 0 -9.18,9.18 9.18,9.18 0 0 0 9.15,-9.18 z m -9.18,-47.72 a 9.18,9.18 0 1 0 -9.17,-9.17 9.18,9.18 0 0 0 9.14,9.17 z m 2.66,36.33 v -34.11 a 11.66,11.66 0 0 1 -2.66,0.31 c -0.34,0 -0.68,0 -1,0 v 33.59 c 0.33,0 0.67,0 1,0 a 11.66,11.66 0 0 1 2.63,0.21 z m -44.88,38.47 15.42,-8.56 19.58,32.25 a 11.87,11.87 0 0 1 3.21,-1.79 l -19.52,-32.25 15.25,-8.46 a 11.72,11.72 0 0 1 -2.15,-3 l -15,8.33 -7.6,-12.55 7.27,-12.09 14.47,8 a 11.77,11.77 0 0 1 1.5,-3.37 l -14.08,-7.81 19.23,-32 a 11.69,11.69 0 0 1 -3.1,-2 l -19.34,32.16 -15,-8.31 a 11.49,11.49 0 0 1 -1.65,3.28 l 14.74,8.18 -6.23,10.4 -10.12,-16.72 a 11.77,11.77 0 0 1 -3.06,2 l 11,18.24 -11.44,19 a 11.79,11.79 0 0 1 3.13,1.91 l 10.49,-17.32 6.52,10.77 -15.24,8.47 a 11.6,11.6 0 0 1 1.72,3.24 z m 84.11,-50.9 -14.75,8.19 -19.59,-32.37 a 11.76,11.76 0 0 1 -3.12,1.92 l 19.5,32.23 -14,7.77 a 11.31,11.31 0 0 1 1.4,3.42 l 14.5,-8 7.3,12.07 -7.27,12.09 -15.32,-8.5 a 11.38,11.38 0 0 1 -2.06,3.05 l 15.48,8.6 -19.56,32.54 a 11.79,11.79 0 0 1 3.13,1.91 l 19.65,-32.67 14.81,8.23 a 11.45,11.45 0 0 1 1.86,-3.17 l -14.78,-8.2 6.21,-10.33 10.22,16.9 a 11.61,11.61 0 0 1 3.19,-1.83 l -11.27,-18.62 11,-18.35 a 11.84,11.84 0 0 1 -3.14,-1.91 l -10,16.71 -6.23,-10.3 14.63,-8.12 a 11.6,11.6 0 0 1 -1.77,-3.26 z m 1.78,-11.23 -32.7,-17.92 a 11.57,11.57 0 0 1 -1.76,3.22 l 32.68,17.91 a 11.84,11.84 0 0 1 1.8,-3.21 z m -44.71,46.72 v 36.65 c 0.33,0 0.67,0 1,0 a 11.66,11.66 0 0 1 2.66,0.31 v -37.23 a 11.66,11.66 0 0 1 -2.66,0.31 c -0.33,-0.04 -0.67,-0.04 -1,-0.04 z m -8.18,-61.34 a 11.84,11.84 0 0 1 -1.78,-3.21 l -32.89,18 a 12,12 0 0 1 1.72,3.25 z m 18.32,102.34 a 11.44,11.44 0 0 1 1.82,3.19 l 32.65,-17.89 a 11.48,11.48 0 0 1 -1.73,-3.24 z m 41.55,-69 v 35.76 a 11.92,11.92 0 0 1 2.25,-0.22 11.32,11.32 0 0 1 1.43,0.1 v -35.53 a 13.55,13.55 0 0 1 -1.43,0.09 11.92,11.92 0 0 1 -2.25,-0.2 z m -104.92,0.17 v 35.43 c 0.33,0 0.67,-0.06 1,-0.06 a 11.65,11.65 0 0 1 2.65,0.32 v -36 a 11.64,11.64 0 0 1 -2.65,0.31 c -0.33,0.03 -0.67,0.01 -0.95,-0.02 z m 12.17,50.64 a 11.86,11.86 0 0 1 -1.66,3.27 l 32.83,18 a 11.56,11.56 0 0 1 1.85,-3.17 z m 42.07,16.33 a 9.18,9.18 0 1 0 9.18,9.17 9.17,9.17 0 0 0 -9.18,-9.19 z"
     id="path6" />
  <path
     class="cls-1"
     d="m 807.82,149.85 a 9.18,9.18 0 1 1 -9.15,-9.17 9.18,9.18 0 0 1 9.15,9.17 z m -9.15,-49.55 a 9.18,9.18 0 1 0 -9.18,-9.18 9.18,9.18 0 0 0 9.18,9.18 z m 106.12,40.38 a 9.18,9.18 0 1 0 9.18,9.17 9.16,9.16 0 0 0 -9.18,-9.17 z m 0,-40.38 a 9.18,9.18 0 1 0 -9.17,-9.18 9.18,9.18 0 0 0 9.17,9.18 z m -43.74,18.66 a 9.18,9.18 0 1 0 -9.18,9.17 9.18,9.18 0 0 0 9.18,-9.17 z m -9.18,-47.73 a 9.18,9.18 0 1 0 -9.18,-9.17 9.17,9.17 0 0 0 9.18,9.17 z m 2.65,36.33 V 73.45 a 11.58,11.58 0 0 1 -2.65,0.31 c -0.34,0 -0.68,0 -1,0 v 33.59 c 0.34,0 0.68,0 1,0 a 11.58,11.58 0 0 1 2.65,0.21 z m -44.85,38.47 15.41,-8.56 19.59,32.25 a 11.87,11.87 0 0 1 3.21,-1.79 l -19.52,-32.24 15.26,-8.47 a 11.75,11.75 0 0 1 -2.16,-3 l -15,8.33 -7.6,-12.55 7.27,-12.08 14.48,8 a 11.86,11.86 0 0 1 1.49,-3.37 l -14.07,-7.81 19.22,-32 a 11.64,11.64 0 0 1 -3.09,-2 l -19.34,32.16 -15,-8.31 a 11.52,11.52 0 0 1 -1.66,3.28 l 14.74,8.18 -6.23,10.39 -10.12,-16.72 a 11.77,11.77 0 0 1 -3.06,2 l 11,18.24 -11.45,19 a 11.63,11.63 0 0 1 3.13,1.91 l 10.5,-17.32 6.54,10.83 -15.25,8.46 a 11.63,11.63 0 0 1 1.71,3.19 z m 84.11,-50.9 -14.75,8.19 -19.56,-32.37 a 11.41,11.41 0 0 1 -3.13,1.92 l 19.51,32.23 -14,7.77 a 11.85,11.85 0 0 1 1.4,3.42 l 14.49,-8 7.31,12.07 -7.27,12.02 -15.31,-8.5 a 11.65,11.65 0 0 1 -2.07,3 l 15.49,8.6 -19.57,32.54 a 11.63,11.63 0 0 1 3.13,1.91 l 19.65,-32.55 14.81,8.23 a 11.7,11.7 0 0 1 1.86,-3.23 l -14.78,-8.2 6.21,-10.33 10.23,16.9 a 11.56,11.56 0 0 1 3.18,-1.83 l -11.27,-18.62 11,-18.35 a 11.69,11.69 0 0 1 -3.14,-1.91 l -10.05,16.71 -6.23,-10.3 14.67,-8.07 a 11.57,11.57 0 0 1 -1.78,-3.25 z m 1.78,-11.23 -32.7,-17.92 a 11.84,11.84 0 0 1 -1.76,3.22 l 32.68,17.91 a 11.32,11.32 0 0 1 1.81,-3.21 z m -44.74,46.71 v 36.65 c 0.34,0 0.68,0 1,0 a 11.58,11.58 0 0 1 2.65,0.31 v -37.19 a 11.58,11.58 0 0 1 -2.65,0.31 c -0.29,-0.03 -0.63,-0.05 -0.97,-0.08 z m -8.15,-61.33 a 11.32,11.32 0 0 1 -1.78,-3.21 l -32.9,18 a 11.51,11.51 0 0 1 1.68,3.31 z M 861,171.6 a 11.55,11.55 0 0 1 1.81,3.19 l 32.65,-17.89 a 11.6,11.6 0 0 1 -1.73,-3.24 z m 41.55,-69 v 35.78 a 11.82,11.82 0 0 1 2.24,-0.22 11.2,11.2 0 0 1 1.43,0.09 v -35.52 a 11.2,11.2 0 0 1 -1.43,0.09 11.05,11.05 0 0 1 -2.24,-0.22 z m -104.88,0.17 v 35.43 c 0.34,0 0.68,0 1,0 a 11.51,11.51 0 0 1 2.65,0.31 v -36 a 11.51,11.51 0 0 1 -2.65,0.31 c -0.37,0 -0.71,-0.02 -1,-0.05 z m 12.12,50.61 a 11.21,11.21 0 0 1 -1.66,3.27 l 32.84,18 a 11.79,11.79 0 0 1 1.84,-3.17 z m 42.08,16.33 a 9.18,9.18 0 1 0 9.18,9.17 9.18,9.18 0 0 0 -9.18,-9.14 z"
     id="path7" />
  <path
     class="cls-1"
     d="m 1039.72,149.85 a 9.18,9.18 0 1 1 -9.17,-9.17 9.17,9.17 0 0 1 9.17,9.17 z m -9.17,-49.55 a 9.18,9.18 0 1 0 -9.18,-9.18 9.17,9.17 0 0 0 9.18,9.18 z m 106.12,40.38 a 9.18,9.18 0 1 0 9.18,9.17 9.17,9.17 0 0 0 -9.18,-9.17 z m 0,-40.38 a 9.18,9.18 0 1 0 -9.18,-9.18 9.18,9.18 0 0 0 9.18,9.18 z m -43.75,18.66 a 9.18,9.18 0 1 0 -9.17,9.17 9.18,9.18 0 0 0 9.2,-9.17 z m -9.17,-47.73 a 9.18,9.18 0 1 0 -9.18,-9.17 9.17,9.17 0 0 0 9.21,9.17 z m 2.65,36.33 V 73.45 a 11.64,11.64 0 0 1 -2.65,0.31 c -0.35,0 -0.69,0 -1,0 v 33.59 c 0.33,0 0.67,0 1,0 a 11.64,11.64 0 0 1 2.68,0.21 z m -44.83,38.47 15.42,-8.56 19.52,32.25 a 11.87,11.87 0 0 1 3.21,-1.79 l -19.52,-32.24 15.25,-8.47 a 11.72,11.72 0 0 1 -2.15,-3 l -15,8.33 -7.6,-12.55 7.27,-12.08 14.48,8 a 11.59,11.59 0 0 1 1.49,-3.37 l -14.08,-7.81 19.23,-32 a 11.69,11.69 0 0 1 -3.1,-2 l -19.32,32.23 -15,-8.31 a 11.78,11.78 0 0 1 -1.66,3.28 l 14.74,8.18 -6.21,10.32 -10.12,-16.72 a 11.77,11.77 0 0 1 -3.06,2 l 11,18.24 -11.44,19 a 11.63,11.63 0 0 1 3.13,1.91 l 10.46,-17.39 6.53,10.78 -15.25,8.46 a 11.6,11.6 0 0 1 1.81,3.31 z m 84.11,-50.9 -14.75,8.19 -19.59,-32.37 a 11.36,11.36 0 0 1 -3.12,1.92 l 19.5,32.23 -14,7.77 a 11.59,11.59 0 0 1 1.41,3.42 l 14.49,-8 7.3,12.07 -7.25,12.02 -15.32,-8.5 a 11.38,11.38 0 0 1 -2.06,3 l 15.49,8.6 -19.57,32.54 a 11.79,11.79 0 0 1 3.13,1.91 l 19.67,-32.55 14.81,8.23 a 11.45,11.45 0 0 1 1.85,-3.23 l -14.78,-8.2 6.21,-10.33 10.23,16.9 a 11.41,11.41 0 0 1 3.18,-1.83 l -11.27,-18.62 11,-18.35 a 11.79,11.79 0 0 1 -3.13,-1.91 l -10,16.71 -6.23,-10.3 14.63,-8.12 a 11.6,11.6 0 0 1 -1.84,-3.2 z m 1.78,-11.23 -32.7,-17.92 A 11.32,11.32 0 0 1 1093,69.2 l 32.67,17.91 a 11.84,11.84 0 0 1 1.82,-3.21 z m -44.73,46.71 v 36.65 c 0.33,0 0.67,0 1,0 a 11.64,11.64 0 0 1 2.65,0.31 v -37.19 a 11.64,11.64 0 0 1 -2.65,0.31 c -0.3,-0.03 -0.64,-0.05 -0.97,-0.08 z m -8.19,-61.33 a 11.84,11.84 0 0 1 -1.78,-3.21 l -32.89,18 a 11.77,11.77 0 0 1 1.8,3.31 z m 18.34,102.32 a 11.81,11.81 0 0 1 1.81,3.19 l 32.65,-17.89 a 11.35,11.35 0 0 1 -1.73,-3.24 z m 41.54,-69 v 35.78 a 11.92,11.92 0 0 1 2.25,-0.22 11.32,11.32 0 0 1 1.43,0.09 v -35.52 a 11.32,11.32 0 0 1 -1.43,0.09 11.15,11.15 0 0 1 -2.22,-0.22 z m -104.92,0.17 v 35.43 c 0.33,0 0.67,0 1,0 a 11.58,11.58 0 0 1 2.65,0.31 v -36 a 11.58,11.58 0 0 1 -2.65,0.31 c -0.3,0 -0.64,-0.02 -0.97,-0.05 z m 12.17,50.61 a 11.72,11.72 0 0 1 -1.66,3.27 l 32.83,18 a 11.56,11.56 0 0 1 1.85,-3.17 z m 42.08,16.33 a 9.18,9.18 0 1 0 9.17,9.17 9.18,9.18 0 0 0 -9.14,-9.14 z"
     id="path8" />
  <path
     class="cls-1"
     d="m 349.44,247.38 a 2.5,2.5 0 0 1 -2.5,-2.5 v -128.5 h 156.59 a 2.5,2.5 0 0 1 0,5 H 351.94 v 123.46 a 2.5,2.5 0 0 1 -2.5,2.54 z"
     id="path15" />
  <polygon
     class="cls-1"
     points="529.9,195.04 537.1,195.04 545.58,203.51 537.1,211.99 529.9,211.99 538.39,203.51 "
     id="polygon15"
     transform="translate(-36.33,-84.62)" />
  <path
     class="cls-1"
     d="M 503.53,573.24 H 346.94 V 452.45 a 2.5,2.5 0 0 1 5,0 v 115.79 h 151.59 a 2.5,2.5 0 0 1 0,5 z"
     id="path16" />
  <polygon
     class="cls-1"
     points="529.9,646.88 537.1,646.88 545.58,655.36 537.1,663.83 529.9,663.83 538.39,655.36 "
     id="polygon16"
     transform="translate(-36.33,-84.62)" />
  <path
     class="cls-1"
     d="m 1323.76,576.21 h -128.45 a 2.5,2.5 0 0 1 0,-5 h 123.45 v -113 a 2.5,2.5 0 0 1 5,0 z"
     id="path17" />
  <polygon
     class="cls-1"
     points="1349.11,552.75 1349.11,545.55 1357.59,537.07 1366.07,545.55 1366.07,552.75 1357.59,544.27 "
     id="polygon17"
     transform="translate(-36.33,-84.62)" />
  <path
     class="cls-1"
     d="m 1321.26,275.49 a 2.5,2.5 0 0 1 -2.5,-2.5 V 121.38 h -123.45 a 2.5,2.5 0 0 1 0,-5 h 128.45 v 156.61 a 2.5,2.5 0 0 1 -2.5,2.5 z"
     id="path18" />
  <polygon
     class="cls-1"
     points="1366.07,347.65 1366.07,354.85 1357.59,363.32 1349.11,354.85 1349.11,347.65 1357.59,356.13 "
     id="polygon18"
     transform="translate(-36.33,-84.62)" />
  <path
     class="cls-1"
     d="m 984.73,577.74 h -251 a 2.5,2.5 0 0 1 0,-5 h 251 a 2.5,2.5 0 0 1 0,5 z"
     id="path19" />
  <polygon
     class="cls-1"
     points="1011.1,651.39 1018.3,651.39 1026.77,659.86 1018.3,668.34 1011.1,668.34 1019.58,659.86 "
     id="polygon19"
     transform="translate(-36.33,-84.62)" />
  <path
     class="cls-1"
     d="m 760.75,121.38 h -60.22 a 2.5,2.5 0 0 1 0,-5 h 60.22 a 2.5,2.5 0 0 1 0,5 z"
     id="path20" />
  <polygon
     class="cls-1"
     points="787.12,195.04 794.31,195.04 802.79,203.51 794.31,211.99 787.12,211.99 795.6,203.51 "
     id="polygon20"
     transform="translate(-36.33,-84.62)" />
  <path
     class="cls-1"
     d="m 236.86,352.06 h -60.19 a 2.5,2.5 0 1 1 0,-5 h 60.21 a 2.5,2.5 0 0 1 0,5 z"
     id="path21" />
  <polygon
     class="cls-1"
     points="263.23,425.7 270.43,425.7 278.91,434.18 270.43,442.66 263.23,442.66 271.71,434.18 "
     id="polygon21"
     transform="translate(-36.33,-84.62)" />
  <path
     class="cls-1"
     d="m 994.42,121.38 h -60.21 a 2.5,2.5 0 0 1 0,-5 h 60.21 a 2.5,2.5 0 0 1 0,5 z"
     id="path22" />
  <polygon
     class="cls-1"
     points="1020.79,195.04 1027.99,195.04 1036.46,203.51 1027.99,211.99 1020.79,211.99 1029.27,203.51 "
     id="polygon22"
     transform="translate(-36.33,-84.62)" />
  <path
     class="cls-1"
     d="m 19.49,427.01 a 8.19,8.19 0 0 1 -2.69,5.68 9.15,9.15 0 0 1 -6.23,2 8.88,8.88 0 0 1 -4.79,-1.29 8.46,8.46 0 0 1 -3.19,-3.66 13.26,13.26 0 0 1 -1.18,-5.52 v -2.12 a 13.36,13.36 0 0 1 1.14,-5.68 8.67,8.67 0 0 1 3.28,-3.78 9.16,9.16 0 0 1 4.93,-1.26 8.78,8.78 0 0 1 6.06,2 8.54,8.54 0 0 1 2.67,5.78 h -3.94 a 5.54,5.54 0 0 0 -1.43,-3.54 4.67,4.67 0 0 0 -3.36,-1.09 4.61,4.61 0 0 0 -4,1.89 9.33,9.33 0 0 0 -1.42,5.52 v 2 a 10,10 0 0 0 1.33,5.66 4.37,4.37 0 0 0 3.87,1.94 5.1,5.1 0 0 0 3.5,-1 5.43,5.43 0 0 0 1.48,-3.48 z"
     id="path23" />
  <path
     class="cls-1"
     d="m 21.94,425.81 a 9.93,9.93 0 0 1 1,-4.48 7.21,7.21 0 0 1 2.73,-3.06 7.86,7.86 0 0 1 4.1,-1.07 7.37,7.37 0 0 1 5.55,2.2 8.71,8.71 0 0 1 2.35,5.84 v 0.9 a 10,10 0 0 1 -1,4.46 7.09,7.09 0 0 1 -2.75,3 7.83,7.83 0 0 1 -4.13,1.08 7.32,7.32 0 0 1 -5.7,-2.3 9.16,9.16 0 0 1 -2.15,-6.36 z m 3.8,0.33 a 6.77,6.77 0 0 0 1.08,4.08 3.5,3.5 0 0 0 3,1.48 3.46,3.46 0 0 0 3,-1.5 7.56,7.56 0 0 0 1.07,-4.39 6.78,6.78 0 0 0 -1.1,-4.07 3.71,3.71 0 0 0 -5.94,0 7.4,7.4 0 0 0 -1.11,4.4 z"
     id="path24" />
  <path
     class="cls-1"
     d="m 44.44,417.51 0.11,1.77 a 6.09,6.09 0 0 1 4.88,-2.08 q 3.39,0 4.64,2.59 a 6,6 0 0 1 5.19,-2.59 5.27,5.27 0 0 1 4.16,1.54 6.85,6.85 0 0 1 1.4,4.57 v 11.07 h -3.8 v -11 a 3.35,3.35 0 0 0 -0.7,-2.36 3.09,3.09 0 0 0 -2.33,-0.75 3.2,3.2 0 0 0 -2.12,0.69 3.67,3.67 0 0 0 -1.14,1.82 v 11.6 h -3.8 v -11.09 a 2.7,2.7 0 0 0 -3,-3 3.36,3.36 0 0 0 -3.26,1.88 v 12.21 h -3.8 v -16.87 z"
     id="path25" />
  <path
     class="cls-1"
     d="m 83.52,426.14 a 10,10 0 0 1 -1.78,6.25 6.18,6.18 0 0 1 -9.23,0.51 v 8 h -3.84 v -23.39 h 3.5 l 0.16,1.72 a 5.58,5.58 0 0 1 4.54,-2 5.76,5.76 0 0 1 4.85,2.3 10.29,10.29 0 0 1 1.76,6.4 z m -3.78,-0.33 a 7,7 0 0 0 -1,-4 3.26,3.26 0 0 0 -2.88,-1.48 3.48,3.48 0 0 0 -3.34,1.92 v 7.5 a 3.52,3.52 0 0 0 3.37,2 3.28,3.28 0 0 0 2.84,-1.46 7.8,7.8 0 0 0 1.01,-4.48 z"
     id="path26" />
  <path
     class="cls-1"
     d="m 96.98,432.76 a 5.91,5.91 0 0 1 -4.75,2 5.26,5.26 0 0 1 -4.17,-1.61 6.87,6.87 0 0 1 -1.41,-4.66 v -11 h 3.79 v 10.89 c 0,2.14 0.9,3.22 2.68,3.22 a 3.76,3.76 0 0 0 3.73,-2 v -12.09 h 3.82 v 16.87 h -3.6 z"
     id="path27" />
  <path
     class="cls-1"
     d="m 109.27,413.38 v 4.11 h 3 v 2.81 h -3 v 9.44 a 2.05,2.05 0 0 0 0.39,1.4 1.74,1.74 0 0 0 1.36,0.43 5.56,5.56 0 0 0 1.33,-0.16 v 2.97 a 9.32,9.32 0 0 1 -2.5,0.36 c -2.92,0 -4.37,-1.61 -4.37,-4.83 v -9.58 h -2.81 v -2.81 h 2.79 v -4.14 z"
     id="path28" />
  <path
     class="cls-1"
     d="m 122.6,434.73 a 7.86,7.86 0 0 1 -5.85,-2.27 8.25,8.25 0 0 1 -2.24,-6.06 v -0.47 a 10.14,10.14 0 0 1 1,-4.52 7.41,7.41 0 0 1 2.75,-3.1 7.2,7.2 0 0 1 3.93,-1.11 6.65,6.65 0 0 1 5.34,2.2 9.36,9.36 0 0 1 1.88,6.24 v 1.53 h -11 a 5.09,5.09 0 0 0 1.39,3.31 4.22,4.22 0 0 0 3.09,1.22 5.15,5.15 0 0 0 4.25,-2.11 l 2,1.95 a 6.8,6.8 0 0 1 -2.71,2.35 8.49,8.49 0 0 1 -3.83,0.84 z m -0.45,-14.49 a 3.21,3.21 0 0 0 -2.48,1.14 5.6,5.6 0 0 0 -1.22,3.05 h 7.22 v -0.29 a 4.61,4.61 0 0 0 -1,-2.88 3.19,3.19 0 0 0 -2.52,-1.02 z"
     id="path29" />
  <path
     class="cls-1"
     d="m 141.18,420.98 a 9.82,9.82 0 0 0 -1.55,-0.13 3.48,3.48 0 0 0 -3.51,2 v 11.53 h -3.8 v -16.87 h 3.62 l 0.1,1.89 a 4.27,4.27 0 0 1 3.81,-2.2 3.44,3.44 0 0 1 1.34,0.22 z"
     id="path30" />
  <path
     class="cls-1"
     d="m 164.67,429.12 h -8.81 l -1.85,5.3 h -4.11 l 8.6,-22.75 h 3.54 l 8.63,22.71 h -4.12 z m -7.71,-3.19 h 6.6 l -3.3,-9.44 z"
     id="path31" />
  <path
     class="cls-1"
     d="m 312.6,425.67 h -4.41 v 8.71 h -3.95 v -22.71 h 8 a 9.37,9.37 0 0 1 6.08,1.76 6.29,6.29 0 0 1 2.14,5.12 6.43,6.43 0 0 1 -1.1,3.82 7,7 0 0 1 -3.07,2.37 l 5.11,9.47 v 0.17 h -4.24 z m -4.41,-3.19 h 4.06 a 4.53,4.53 0 0 0 3.13,-1 3.51,3.51 0 0 0 1.12,-2.76 3.72,3.72 0 0 0 -1,-2.82 4.47,4.47 0 0 0 -3.11,-1 h -4.17 z"
     id="path32" />
  <path
     class="cls-1"
     d="m 323.13,425.81 a 10.06,10.06 0 0 1 1,-4.48 7.17,7.17 0 0 1 2.77,-3.06 7.82,7.82 0 0 1 4.09,-1.07 7.39,7.39 0 0 1 5.56,2.2 8.66,8.66 0 0 1 2.3,5.84 v 0.9 a 10,10 0 0 1 -1,4.46 7.09,7.09 0 0 1 -2.75,3 7.86,7.86 0 0 1 -4.14,1.08 7.32,7.32 0 0 1 -5.72,-2.38 9.16,9.16 0 0 1 -2.15,-6.36 z m 3.8,0.33 a 6.84,6.84 0 0 0 1.07,4.08 3.77,3.77 0 0 0 6,0 7.56,7.56 0 0 0 1.07,-4.39 6.78,6.78 0 0 0 -1.1,-4.07 3.54,3.54 0 0 0 -3,-1.5 3.49,3.49 0 0 0 -2.95,1.48 7.41,7.41 0 0 0 -1.09,4.4 z"
     id="path33" />
  <path
     class="cls-1"
     d="m 352.3,432.76 a 5.89,5.89 0 0 1 -4.75,2 5.25,5.25 0 0 1 -4.16,-1.61 6.82,6.82 0 0 1 -1.42,-4.66 v -11 h 3.8 v 10.89 c 0,2.14 0.89,3.22 2.67,3.22 a 3.77,3.77 0 0 0 3.74,-2 v -12.09 h 3.79 v 16.87 h -3.57 z"
     id="path34" />
  <path
     class="cls-1"
     d="m 364.6,413.38 v 4.11 h 3 v 2.81 h -3 v 9.44 a 2.11,2.11 0 0 0 0.38,1.4 1.77,1.77 0 0 0 1.37,0.43 5.56,5.56 0 0 0 1.33,-0.16 v 2.97 a 9.38,9.38 0 0 1 -2.5,0.36 q -4.38,0 -4.38,-4.83 v -9.58 h -2.78 v -2.81 h 2.78 v -4.14 z"
     id="path35" />
  <path
     class="cls-1"
     d="m 377.93,434.73 a 7.86,7.86 0 0 1 -5.85,-2.27 8.25,8.25 0 0 1 -2.25,-6.06 v -0.47 a 10.14,10.14 0 0 1 1,-4.52 7.39,7.39 0 0 1 2.74,-3.1 7.26,7.26 0 0 1 3.94,-1.11 6.65,6.65 0 0 1 5.34,2.2 9.36,9.36 0 0 1 1.88,6.24 v 1.53 h -11.06 a 5.09,5.09 0 0 0 1.4,3.31 4.22,4.22 0 0 0 3.09,1.22 5.18,5.18 0 0 0 4.25,-2.11 l 2,1.95 a 6.8,6.8 0 0 1 -2.71,2.35 8.45,8.45 0 0 1 -3.77,0.84 z m -0.46,-14.49 a 3.19,3.19 0 0 0 -2.52,1.1 5.69,5.69 0 0 0 -1.23,3.05 h 7.24 v -0.29 a 4.61,4.61 0 0 0 -1,-2.88 3.16,3.16 0 0 0 -2.49,-0.98 z"
     id="path36" />
  <path
     class="cls-1"
     d="m 396.5,420.98 a 9.7,9.7 0 0 0 -1.54,-0.13 3.5,3.5 0 0 0 -3.52,2 v 11.53 h -3.77 v -16.87 h 3.62 l 0.09,1.89 a 4.28,4.28 0 0 1 3.82,-2.2 3.44,3.44 0 0 1 1.34,0.22 z"
     id="path37" />
  <path
     class="cls-1"
     d="m 559.05,24 h -4 L 544.96,7.86 V 24 h -3.95 V 1.25 h 3.95 l 10.17,16.2 V 1.25 h 3.92 z"
     id="path38" />
  <path
     class="cls-1"
     d="m 570.8,24.31 a 7.89,7.89 0 0 1 -5.85,-2.27 8.29,8.29 0 0 1 -2.28,-6.06 v -0.47 a 10.17,10.17 0 0 1 1,-4.52 7.39,7.39 0 0 1 2.74,-3.1 7.26,7.26 0 0 1 3.94,-1.11 6.61,6.61 0 0 1 5.32,2.2 9.31,9.31 0 0 1 1.89,6.24 v 1.53 h -11 a 5,5 0 0 0 1.4,3.31 4.18,4.18 0 0 0 3.08,1.22 5.13,5.13 0 0 0 4.25,-2.11 l 2,1.95 a 6.8,6.8 0 0 1 -2.71,2.35 8.46,8.46 0 0 1 -3.78,0.84 z M 570.35,9.83 a 3.19,3.19 0 0 0 -2.52,1.09 5.72,5.72 0 0 0 -1.23,3 h 7.24 v -0.28 a 4.7,4.7 0 0 0 -1,-2.89 3.17,3.17 0 0 0 -2.49,-0.92 z"
     id="path39" />
  <path
     class="cls-1"
     d="m 585.29,2.98 v 4.11 h 3 V 9.9 h -3 v 9.48 a 2.11,2.11 0 0 0 0.38,1.4 1.77,1.77 0 0 0 1.37,0.43 5.56,5.56 0 0 0 1.33,-0.16 v 2.94 a 9.38,9.38 0 0 1 -2.5,0.36 q -4.38,0 -4.38,-4.83 V 9.9 h -2.82 V 7.09 h 2.78 V 2.98 Z"
     id="path40" />
  <path
     class="cls-1"
     d="m 606.02,18.76 2.65,-11.67 h 3.7 L 607.76,24 h -3.09 l -3.62,-11.62 -3.56,11.61 h -3.12 L 589.74,7.08 h 3.71 l 2.73,11.55 3.49,-11.54 h 2.86 z"
     id="path41" />
  <path
     class="cls-1"
     d="m 614.24,15.38 a 9.93,9.93 0 0 1 1,-4.48 7.09,7.09 0 0 1 2.76,-3.06 7.83,7.83 0 0 1 4.1,-1.07 7.37,7.37 0 0 1 5.57,2.21 8.72,8.72 0 0 1 2.31,5.85 v 0.89 a 10.12,10.12 0 0 1 -1,4.47 7.12,7.12 0 0 1 -2.75,3 7.83,7.83 0 0 1 -4.13,1.08 7.32,7.32 0 0 1 -5.73,-2.38 9.15,9.15 0 0 1 -2.15,-6.35 z m 3.8,0.33 a 6.77,6.77 0 0 0 1.08,4.08 3.5,3.5 0 0 0 3,1.48 3.46,3.46 0 0 0 3,-1.5 7.54,7.54 0 0 0 1.07,-4.39 6.74,6.74 0 0 0 -1.1,-4.06 3.72,3.72 0 0 0 -5.95,0 7.41,7.41 0 0 0 -1.1,4.4 z"
     id="path42" />
  <path
     class="cls-1"
     d="m 642.02,10.56 a 9.7,9.7 0 0 0 -1.54,-0.12 3.48,3.48 0 0 0 -3.52,2 V 24 h -3.8 V 7.09 h 3.63 l 0.09,1.89 a 4.28,4.28 0 0 1 3.79,-2.2 3.48,3.48 0 0 1 1.34,0.22 z"
     id="path43" />
  <path
     class="cls-1"
     d="m 649.91,16.75 -1.68,1.73 V 24 h -3.8 V 0 h 3.8 v 13.84 l 1.18,-1.46 4.68,-5.27 h 4.58 l -6.28,7.05 6.95,9.86 h -4.39 z"
     id="path44" />
  <path
     class="cls-1"
     d="m 679.13,24 h -3.78 V 5.72 l -5.58,1.9 V 4.44 l 8.9,-3.27 h 0.48 z"
     id="path45" />
  <path
     class="cls-1"
     d="m 799.72,24 h -3.95 L 785.67,7.86 V 24 h -4 V 1.25 h 4 l 10.17,16.2 V 1.25 h 3.92 z"
     id="path46" />
  <path
     class="cls-1"
     d="m 811.47,24.31 a 7.89,7.89 0 0 1 -5.85,-2.27 8.29,8.29 0 0 1 -2.24,-6.06 v -0.47 a 10.17,10.17 0 0 1 1,-4.52 7.39,7.39 0 0 1 2.74,-3.1 7.26,7.26 0 0 1 3.94,-1.11 6.61,6.61 0 0 1 5.33,2.2 9.31,9.31 0 0 1 1.89,6.24 v 1.53 h -11.07 a 5,5 0 0 0 1.4,3.31 4.18,4.18 0 0 0 3.06,1.22 5.13,5.13 0 0 0 4.25,-2.11 l 2.05,1.95 a 6.8,6.8 0 0 1 -2.71,2.35 8.46,8.46 0 0 1 -3.79,0.84 z M 811.02,9.83 a 3.19,3.19 0 0 0 -2.52,1.09 5.72,5.72 0 0 0 -1.23,3 h 7.24 v -0.28 a 4.7,4.7 0 0 0 -1,-2.89 3.17,3.17 0 0 0 -2.49,-0.92 z"
     id="path47" />
  <path
     class="cls-1"
     d="m 825.96,2.98 v 4.11 h 3 V 9.9 h -3 v 9.48 a 2.11,2.11 0 0 0 0.38,1.4 1.77,1.77 0 0 0 1.37,0.43 5.56,5.56 0 0 0 1.33,-0.16 v 2.94 a 9.38,9.38 0 0 1 -2.5,0.36 q -4.38,0 -4.38,-4.83 V 9.9 h -2.78 V 7.09 h 2.78 V 2.98 Z"
     id="path48" />
  <path
     class="cls-1"
     d="m 846.67,18.76 2.69,-11.67 h 3.7 L 848.45,24 h -3.12 l -3.61,-11.62 -3.56,11.61 h -3.12 L 830.41,7.08 h 3.71 l 2.73,11.55 3.47,-11.55 h 2.86 z"
     id="path49" />
  <path
     class="cls-1"
     d="m 854.91,15.38 a 9.93,9.93 0 0 1 1,-4.48 7.09,7.09 0 0 1 2.76,-3.05 7.83,7.83 0 0 1 4.1,-1.07 7.37,7.37 0 0 1 5.55,2.2 8.72,8.72 0 0 1 2.35,5.85 v 0.89 a 10.12,10.12 0 0 1 -1,4.47 7.12,7.12 0 0 1 -2.75,3 7.83,7.83 0 0 1 -4.13,1.08 7.32,7.32 0 0 1 -5.73,-2.38 9.15,9.15 0 0 1 -2.15,-6.35 z m 3.8,0.33 a 6.77,6.77 0 0 0 1.08,4.08 3.5,3.5 0 0 0 3,1.48 3.46,3.46 0 0 0 3,-1.5 7.54,7.54 0 0 0 1.07,-4.39 6.74,6.74 0 0 0 -1.1,-4.06 3.72,3.72 0 0 0 -6,0 7.41,7.41 0 0 0 -1.09,4.4 z"
     id="path50" />
  <path
     class="cls-1"
     d="m 882.67,10.56 a 9.7,9.7 0 0 0 -1.54,-0.12 3.48,3.48 0 0 0 -3.52,2 V 24 h -3.8 V 7.09 h 3.63 l 0.09,1.89 a 4.28,4.28 0 0 1 3.82,-2.2 3.48,3.48 0 0 1 1.34,0.22 z"
     id="path51" />
  <path
     class="cls-1"
     d="m 890.58,16.75 -1.68,1.73 V 24 h -3.8 V 0 h 3.8 v 13.84 l 1.18,-1.46 4.68,-5.27 h 4.56 l -6.28,7.05 7,9.86 h -4.39 z"
     id="path52" />
  <path
     class="cls-1"
     d="m 913.91,10.89 h 2.31 a 4.11,4.11 0 0 0 2.78,-0.91 3.23,3.23 0 0 0 1,-2.58 3.51,3.51 0 0 0 -0.85,-2.52 3.43,3.43 0 0 0 -2.6,-0.9 3.64,3.64 0 0 0 -2.52,0.89 2.94,2.94 0 0 0 -1,2.3 h -3.8 a 5.75,5.75 0 0 1 0.93,-3.19 6.3,6.3 0 0 1 2.59,-2.24 8.43,8.43 0 0 1 3.73,-0.8 7.81,7.81 0 0 1 5.35,1.71 6,6 0 0 1 1.99,4.73 4.84,4.84 0 0 1 -1,2.89 6.14,6.14 0 0 1 -2.52,2 5.28,5.28 0 0 1 3.83,5.29 6.11,6.11 0 0 1 -2.1,4.88 8.19,8.19 0 0 1 -5.53,1.81 8.05,8.05 0 0 1 -5.37,-1.75 5.76,5.76 0 0 1 -2.1,-4.66 h 3.8 a 3.18,3.18 0 0 0 1,2.44 3.79,3.79 0 0 0 2.71,0.94 3.92,3.92 0 0 0 2.78,-0.94 3.5,3.5 0 0 0 1,-2.72 3.54,3.54 0 0 0 -1.07,-2.76 4.52,4.52 0 0 0 -3.15,-1 h -2.24 z"
     id="path53" />
  <path
     class="cls-1"
     d="m 573.75,692.29 h -4 l -10.08,-16.14 v 16.14 h -4 v -22.75 h 4 l 10.17,16.21 v -16.21 h 3.92 z"
     id="path54" />
  <path
     class="cls-1"
     d="m 585.5,692.61 a 7.84,7.84 0 0 1 -5.83,-2.23 8.25,8.25 0 0 1 -2.24,-6.05 v -0.47 a 10.11,10.11 0 0 1 1,-4.52 7.51,7.51 0 0 1 2.75,-3.11 7.22,7.22 0 0 1 3.93,-1.11 6.64,6.64 0 0 1 5.34,2.21 9.28,9.28 0 0 1 1.88,6.23 v 1.53 h -11 a 5.11,5.11 0 0 0 1.34,3.29 4.21,4.21 0 0 0 3.09,1.21 5.14,5.14 0 0 0 4.25,-2.1 l 2.05,1.95 a 6.87,6.87 0 0 1 -2.71,2.35 8.46,8.46 0 0 1 -3.85,0.82 z m -0.45,-14.49 a 3.19,3.19 0 0 0 -2.52,1.1 5.57,5.57 0 0 0 -1.23,3 h 7.23 v -0.28 a 4.61,4.61 0 0 0 -1,-2.88 3.19,3.19 0 0 0 -2.48,-0.94 z"
     id="path55" />
  <path
     class="cls-1"
     d="m 599.99,671.28 v 4.1 h 3 v 2.81 h -3 v 9.44 a 2.07,2.07 0 0 0 0.38,1.4 1.79,1.79 0 0 0 1.37,0.43 6,6 0 0 0 1.32,-0.16 v 2.94 a 9.27,9.27 0 0 1 -2.5,0.36 q -4.36,0 -4.37,-4.83 v -9.58 h -2.78 v -2.81 h 2.78 v -4.1 z"
     id="path56" />
  <path
     class="cls-1"
     d="m 620.72,687.06 2.69,-11.68 h 3.7 l -4.61,16.9 h -3.12 l -3.63,-11.61 -3.56,11.61 h -3.13 l -4.62,-16.9 h 3.7 l 2.74,11.54 3.47,-11.54 h 2.86 z"
     id="path57" />
  <path
     class="cls-1"
     d="m 628.94,683.68 a 10,10 0 0 1 1,-4.47 7.17,7.17 0 0 1 2.77,-3.06 7.74,7.74 0 0 1 4.09,-1.08 7.4,7.4 0 0 1 5.56,2.21 8.64,8.64 0 0 1 2.3,5.84 v 0.89 a 10.05,10.05 0 0 1 -1,4.47 7.15,7.15 0 0 1 -2.75,3 7.86,7.86 0 0 1 -4.14,1.08 7.32,7.32 0 0 1 -5.72,-2.39 9.11,9.11 0 0 1 -2.15,-6.35 z m 3.8,0.33 a 6.9,6.9 0 0 0 1.07,4.09 3.51,3.51 0 0 0 3,1.47 3.48,3.48 0 0 0 3,-1.5 7.54,7.54 0 0 0 1.07,-4.39 6.76,6.76 0 0 0 -1.1,-4.06 3.54,3.54 0 0 0 -3,-1.5 3.47,3.47 0 0 0 -3,1.48 7.35,7.35 0 0 0 -1.04,4.41 z"
     id="path58" />
  <path
     class="cls-1"
     d="m 656.72,678.86 a 8.68,8.68 0 0 0 -1.55,-0.13 3.48,3.48 0 0 0 -3.51,2 v 11.56 h -3.8 v -16.91 h 3.63 l 0.09,1.89 a 4.29,4.29 0 0 1 3.81,-2.21 3.74,3.74 0 0 1 1.35,0.22 z"
     id="path59" />
  <path
     class="cls-1"
     d="m 664.61,685.04 -1.69,1.74 v 5.51 h -3.79 v -24 h 3.79 v 13.85 l 1.19,-1.49 4.67,-5.26 h 4.57 l -6.29,7 7,9.86 h -4.39 z"
     id="path60" />
  <path
     class="cls-1"
     d="m 698.85,692.29 h -15.3 v -2.61 l 7.58,-8.26 a 18.74,18.74 0 0 0 2.33,-3.06 4.85,4.85 0 0 0 0.7,-2.46 3.72,3.72 0 0 0 -0.92,-2.62 3.16,3.16 0 0 0 -2.46,-1 3.66,3.66 0 0 0 -2.86,1.12 4.46,4.46 0 0 0 -1,3.08 h -3.8 a 7.45,7.45 0 0 1 0.95,-3.74 6.55,6.55 0 0 1 2.7,-2.59 8.64,8.64 0 0 1 4,-0.92 7.71,7.71 0 0 1 5.23,1.67 5.75,5.75 0 0 1 1.92,4.6 7.87,7.87 0 0 1 -1,3.57 20.53,20.53 0 0 1 -3.14,4.24 l -5.57,6 h 10.57 z"
     id="path61" />
  <path
     class="cls-1"
     d="m 1036.56,692.29 h -4 l -10.14,-16.14 v 16.14 h -4 v -22.75 h 4 l 10.25,16.21 v -16.21 h 3.93 z"
     id="path62" />
  <path
     class="cls-1"
     d="m 1048.31,692.61 a 7.86,7.86 0 0 1 -5.86,-2.28 8.25,8.25 0 0 1 -2.24,-6.05 v -0.47 a 10.11,10.11 0 0 1 1,-4.52 7.42,7.42 0 0 1 2.74,-3.11 7.26,7.26 0 0 1 3.94,-1.11 6.62,6.62 0 0 1 5.33,2.21 9.28,9.28 0 0 1 1.89,6.23 v 1.53 h -11.05 a 5.07,5.07 0 0 0 1.4,3.32 4.19,4.19 0 0 0 3.08,1.21 5.14,5.14 0 0 0 4.25,-2.1 l 2.05,1.95 a 6.87,6.87 0 0 1 -2.71,2.35 8.45,8.45 0 0 1 -3.82,0.84 z m -0.46,-14.49 a 3.19,3.19 0 0 0 -2.52,1.1 5.65,5.65 0 0 0 -1.23,3 h 7.24 v -0.28 a 4.61,4.61 0 0 0 -1,-2.88 3.18,3.18 0 0 0 -2.49,-0.94 z"
     id="path63" />
  <path
     class="cls-1"
     d="m 1062.79,671.28 v 4.1 h 3 v 2.81 h -3 v 9.44 a 2.13,2.13 0 0 0 0.38,1.4 1.81,1.81 0 0 0 1.37,0.43 6.12,6.12 0 0 0 1.33,-0.16 v 2.94 a 9.38,9.38 0 0 1 -2.5,0.36 q -4.38,0 -4.38,-4.83 v -9.58 h -2.78 v -2.81 h 2.78 v -4.1 z"
     id="path64" />
  <path
     class="cls-1"
     d="m 1083.52,687.06 2.69,-11.67 h 3.71 l -4.61,16.9 h -3.13 l -3.62,-11.61 -3.57,11.61 h -3.12 l -4.63,-16.9 h 3.71 l 2.73,11.54 3.47,-11.54 h 2.86 z"
     id="path65" />
  <path
     class="cls-1"
     d="m 1091.74,683.68 a 9.92,9.92 0 0 1 1,-4.47 7.15,7.15 0 0 1 2.76,-3.06 7.77,7.77 0 0 1 4.1,-1.08 7.37,7.37 0 0 1 5.55,2.21 8.69,8.69 0 0 1 2.31,5.84 v 0.89 a 10.05,10.05 0 0 1 -1,4.47 7.15,7.15 0 0 1 -2.75,3 7.83,7.83 0 0 1 -4.13,1.08 7.33,7.33 0 0 1 -5.73,-2.39 9.11,9.11 0 0 1 -2.15,-6.35 z m 3.8,0.33 a 6.83,6.83 0 0 0 1.08,4.09 3.51,3.51 0 0 0 3,1.47 3.46,3.46 0 0 0 3,-1.5 7.54,7.54 0 0 0 1.07,-4.39 6.76,6.76 0 0 0 -1.1,-4.06 3.72,3.72 0 0 0 -6,0 7.35,7.35 0 0 0 -1.05,4.39 z"
     id="path66" />
  <path
     class="cls-1"
     d="m 1119.52,678.86 a 8.65,8.65 0 0 0 -1.54,-0.13 3.5,3.5 0 0 0 -3.52,2 v 11.56 h -3.79 v -16.91 h 3.62 l 0.09,1.89 a 4.29,4.29 0 0 1 3.82,-2.21 3.64,3.64 0 0 1 1.34,0.22 z"
     id="path67" />
  <path
     class="cls-1"
     d="m 1127.42,685.04 -1.69,1.74 v 5.51 h -3.8 v -24 h 3.8 v 13.85 l 1.19,-1.49 4.67,-5.26 h 4.56 l -6.28,7 7,9.86 h -4.39 z"
     id="path68" />
  <path
     class="cls-1"
     d="m 1159.2,684.18 h 2.82 v 3.05 h -2.82 v 5.06 h -3.8 v -5.06 h -9.83 l -0.11,-2.31 9.81,-15.38 h 3.93 z m -9.75,0 h 6 v -9.5 l -0.28,0.5 z"
     id="path69" />
  <path
     class="cls-1"
     d="m 1255.95,427.01 a 8.23,8.23 0 0 1 -2.69,5.68 9.16,9.16 0 0 1 -6.24,2 8.84,8.84 0 0 1 -4.78,-1.29 8.42,8.42 0 0 1 -3.2,-3.66 13.26,13.26 0 0 1 -1.17,-5.52 v -2.12 a 13.36,13.36 0 0 1 1.14,-5.68 8.65,8.65 0 0 1 3.27,-3.78 9.19,9.19 0 0 1 4.93,-1.33 8.78,8.78 0 0 1 6.06,2 8.51,8.51 0 0 1 2.68,5.78 h -3.94 a 5.65,5.65 0 0 0 -1.43,-3.54 4.71,4.71 0 0 0 -3.37,-1.09 4.61,4.61 0 0 0 -4,1.89 9.4,9.4 0 0 0 -1.41,5.52 v 2 a 10,10 0 0 0 1.32,5.63 4.36,4.36 0 0 0 3.86,1.94 5.08,5.08 0 0 0 3.5,-1 5.38,5.38 0 0 0 1.49,-3.48 z"
     id="path70" />
  <path
     class="cls-1"
     d="m 1258.4,425.81 a 10.06,10.06 0 0 1 1,-4.48 7.17,7.17 0 0 1 2.77,-3.06 7.82,7.82 0 0 1 4.09,-1.07 7.39,7.39 0 0 1 5.56,2.2 8.66,8.66 0 0 1 2.3,5.84 v 0.9 a 10,10 0 0 1 -1,4.46 7.09,7.09 0 0 1 -2.75,3 7.86,7.86 0 0 1 -4.14,1.08 7.32,7.32 0 0 1 -5.72,-2.38 9.16,9.16 0 0 1 -2.15,-6.36 z m 3.8,0.33 a 6.84,6.84 0 0 0 1.07,4.08 3.77,3.77 0 0 0 6,0 7.56,7.56 0 0 0 1.07,-4.39 6.78,6.78 0 0 0 -1.1,-4.07 3.54,3.54 0 0 0 -3,-1.5 3.49,3.49 0 0 0 -3,1.48 7.41,7.41 0 0 0 -1.04,4.4 z"
     id="path71" />
  <path
     class="cls-1"
     d="m 1280.9,417.51 0.11,1.77 a 6.07,6.07 0 0 1 4.87,-2.08 q 3.39,0 4.64,2.59 a 6,6 0 0 1 5.19,-2.59 5.29,5.29 0 0 1 4.17,1.54 6.85,6.85 0 0 1 1.39,4.57 v 11.07 h -3.79 v -11 a 3.35,3.35 0 0 0 -0.71,-2.36 3,3 0 0 0 -2.32,-0.75 3.18,3.18 0 0 0 -2.12,0.69 3.68,3.68 0 0 0 -1.15,1.82 v 11.6 h -3.8 v -11.09 a 2.71,2.71 0 0 0 -3,-3 3.33,3.33 0 0 0 -3.23,1.86 v 12.23 h -3.8 v -16.87 z"
     id="path72" />
  <path
     class="cls-1"
     d="m 1319.98,426.14 a 10.08,10.08 0 0 1 -1.78,6.25 6.19,6.19 0 0 1 -9.24,0.51 v 8 h -3.79 v -23.39 h 3.5 l 0.15,1.72 a 5.6,5.6 0 0 1 4.55,-2 5.77,5.77 0 0 1 4.85,2.3 10.36,10.36 0 0 1 1.76,6.4 z m -3.78,-0.33 a 7.08,7.08 0 0 0 -1,-4 3.26,3.26 0 0 0 -2.88,-1.48 3.5,3.5 0 0 0 -3.35,1.92 v 7.5 a 3.53,3.53 0 0 0 3.38,2 3.27,3.27 0 0 0 2.83,-1.46 7.79,7.79 0 0 0 1.02,-4.48 z"
     id="path73" />
  <path
     class="cls-1"
     d="m 1333.43,432.76 a 5.89,5.89 0 0 1 -4.75,2 5.25,5.25 0 0 1 -4.16,-1.61 6.82,6.82 0 0 1 -1.42,-4.66 v -11 h 3.8 v 10.89 c 0,2.14 0.89,3.22 2.67,3.22 a 3.77,3.77 0 0 0 3.74,-2 v -12.09 h 3.79 v 16.87 h -3.58 z"
     id="path74" />
  <path
     class="cls-1"
     d="m 1345.73,413.38 v 4.11 h 3 v 2.81 h -3 v 9.44 a 2.06,2.06 0 0 0 0.38,1.4 1.77,1.77 0 0 0 1.37,0.43 5.56,5.56 0 0 0 1.33,-0.16 v 2.97 a 9.38,9.38 0 0 1 -2.5,0.36 q -4.38,0 -4.38,-4.83 v -9.58 h -2.78 v -2.81 h 2.78 v -4.14 z"
     id="path75" />
  <path
     class="cls-1"
     d="m 1359.06,434.73 a 7.9,7.9 0 0 1 -5.86,-2.27 8.29,8.29 0 0 1 -2.24,-6.06 v -0.47 a 10.14,10.14 0 0 1 1,-4.52 7.39,7.39 0 0 1 2.74,-3.1 7.26,7.26 0 0 1 3.94,-1.11 6.61,6.61 0 0 1 5.33,2.2 9.31,9.31 0 0 1 1.89,6.24 v 1.53 h -11.05 a 5,5 0 0 0 1.4,3.31 4.2,4.2 0 0 0 3.08,1.22 5.15,5.15 0 0 0 4.25,-2.11 l 2.05,1.95 a 6.8,6.8 0 0 1 -2.71,2.35 8.45,8.45 0 0 1 -3.82,0.84 z m -0.46,-14.49 a 3.19,3.19 0 0 0 -2.52,1.1 5.69,5.69 0 0 0 -1.23,3.05 h 7.24 v -0.29 a 4.61,4.61 0 0 0 -1,-2.88 3.18,3.18 0 0 0 -2.49,-0.98 z"
     id="path76" />
  <path
     class="cls-1"
     d="m 1377.67,420.98 a 9.7,9.7 0 0 0 -1.54,-0.13 3.49,3.49 0 0 0 -3.52,2 v 11.53 h -3.8 v -16.87 h 3.63 l 0.09,1.89 a 4.28,4.28 0 0 1 3.82,-2.2 3.48,3.48 0 0 1 1.34,0.22 z"
     id="path77" />
  <path
     class="cls-1"
     d="m 1388.37,434.38 v -22.71 h 7.8 a 9.51,9.51 0 0 1 5.87,1.54 5.46,5.46 0 0 1 2,4.61 5,5 0 0 1 -0.85,2.82 5.41,5.41 0 0 1 -2.47,1.93 5,5 0 0 1 2.85,1.89 5.41,5.41 0 0 1 1,3.32 6.06,6.06 0 0 1 -2,4.92 9,9 0 0 1 -5.9,1.68 z m 4,-13.18 h 3.88 a 4.47,4.47 0 0 0 2.88,-0.83 2.88,2.88 0 0 0 1,-2.37 2.92,2.92 0 0 0 -1,-2.44 4.85,4.85 0 0 0 -3,-0.75 h -3.85 z m 0,2.91 v 7.11 h 4.3 a 4.28,4.28 0 0 0 3,-0.84 3.24,3.24 0 0 0 1,-2.56 q 0,-3.56 -3.63,-3.63 z"
     id="path78" />
  <path
     class="cls-1"
     d="m 1029.79,24 h -3.95 L 1015.67,7.86 V 24 h -4 V 1.25 h 4 l 10.17,16.2 V 1.25 h 3.92 z"
     id="path79" />
  <path
     class="cls-1"
     d="m 1041.55,24.31 a 7.9,7.9 0 0 1 -5.86,-2.27 8.29,8.29 0 0 1 -2.24,-6.06 v -0.47 a 10.17,10.17 0 0 1 1,-4.52 7.39,7.39 0 0 1 2.74,-3.1 7.26,7.26 0 0 1 3.94,-1.11 6.61,6.61 0 0 1 5.33,2.2 9.31,9.31 0 0 1 1.89,6.24 v 1.53 h -11.05 a 5,5 0 0 0 1.4,3.31 4.2,4.2 0 0 0 3.08,1.22 5.13,5.13 0 0 0 4.25,-2.11 l 2.05,1.95 a 6.8,6.8 0 0 1 -2.71,2.35 8.45,8.45 0 0 1 -3.82,0.84 z m -0.46,-14.48 a 3.19,3.19 0 0 0 -2.52,1.09 5.72,5.72 0 0 0 -1.23,3 h 7.24 v -0.28 a 4.7,4.7 0 0 0 -1,-2.89 3.17,3.17 0 0 0 -2.49,-0.92 z"
     id="path80" />
  <path
     class="cls-1"
     d="m 1056.03,2.98 v 4.11 h 3 V 9.9 h -3 v 9.48 a 2.11,2.11 0 0 0 0.38,1.4 1.77,1.77 0 0 0 1.37,0.43 5.56,5.56 0 0 0 1.33,-0.16 v 2.94 a 9.38,9.38 0 0 1 -2.5,0.36 q -4.38,0 -4.38,-4.83 V 9.9 h -2.78 V 7.09 h 2.78 V 2.98 Z"
     id="path81" />
  <path
     class="cls-1"
     d="m 1076.76,18.76 2.69,-11.67 h 3.7 l -4.6,16.91 h -3.13 l -3.63,-11.62 -3.56,11.61 h -3.12 l -4.63,-16.91 h 3.71 l 2.73,11.55 3.47,-11.55 h 2.86 z"
     id="path82" />
  <path
     class="cls-1"
     d="m 1084.98,15.38 a 9.93,9.93 0 0 1 1,-4.48 7.15,7.15 0 0 1 2.76,-3.06 7.83,7.83 0 0 1 4.1,-1.07 7.37,7.37 0 0 1 5.55,2.2 8.72,8.72 0 0 1 2.31,5.85 v 0.89 a 10.12,10.12 0 0 1 -1,4.47 7.12,7.12 0 0 1 -2.75,3 7.83,7.83 0 0 1 -4.13,1.08 7.32,7.32 0 0 1 -5.73,-2.38 9.15,9.15 0 0 1 -2.15,-6.35 z m 3.8,0.33 a 6.77,6.77 0 0 0 1.08,4.08 3.5,3.5 0 0 0 3,1.48 3.46,3.46 0 0 0 3,-1.5 7.54,7.54 0 0 0 1.07,-4.39 6.74,6.74 0 0 0 -1.1,-4.06 3.72,3.72 0 0 0 -6,0 7.41,7.41 0 0 0 -1.05,4.4 z"
     id="path83" />
  <path
     class="cls-1"
     d="m 1112.76,10.56 a 9.7,9.7 0 0 0 -1.54,-0.12 3.48,3.48 0 0 0 -3.52,2 V 24 h -3.8 V 7.09 h 3.63 l 0.09,1.89 a 4.28,4.28 0 0 1 3.82,-2.2 3.48,3.48 0 0 1 1.34,0.22 z"
     id="path84" />
  <path
     class="cls-1"
     d="m 1120.67,16.75 -1.68,1.73 V 24 h -3.8 V 0 h 3.8 v 13.84 l 1.18,-1.48 4.68,-5.27 h 4.56 l -6.28,7.05 7,9.86 h -4.46 z"
     id="path85" />
  <path
     class="cls-1"
     d="m 1140.61,12.72 1.23,-11.47 h 12.22 V 4.53 H 1145 l -0.63,5.44 a 7,7 0 0 1 3.57,-0.91 6.32,6.32 0 0 1 5,2.08 8.24,8.24 0 0 1 1.8,5.59 7.56,7.56 0 0 1 -2,5.53 7.29,7.29 0 0 1 -5.48,2.05 7.66,7.66 0 0 1 -5.18,-1.77 6.43,6.43 0 0 1 -2.23,-4.68 h 3.68 a 4,4 0 0 0 1.18,2.54 3.61,3.61 0 0 0 2.53,0.88 3.27,3.27 0 0 0 2.73,-1.25 5.4,5.4 0 0 0 1,-3.41 4.78,4.78 0 0 0 -1.08,-3.29 3.8,3.8 0 0 0 -3,-1.21 4.76,4.76 0 0 0 -1.75,0.28 4.89,4.89 0 0 0 -1.56,1.07 z"
     id="path86" />
</svg>
